<?xml version="1.0" encoding="UTF-8" standalone="no"?>
<svg
   xmlns:dc="http://purl.org/dc/elements/1.1/"
   xmlns:cc="http://creativecommons.org/ns#"
   xmlns:rdf="http://www.w3.org/1999/02/22-rdf-syntax-ns#"
   xmlns:svg="http://www.w3.org/2000/svg"
   xmlns="http://www.w3.org/2000/svg"
   xmlns:sodipodi="http://sodipodi.sourceforge.net/DTD/sodipodi-0.dtd"
   xmlns:inkscape="http://www.inkscape.org/namespaces/inkscape"
   width="112mm"
   height="180mm"
   viewBox="0 0 112 180"
   version="1.1"
   id="svg8"
   inkscape:version="1.0.2 (e86c870, 2021-01-15)"
   sodipodi:docname="app_mascot.svg"
   inkscape:export-filename="C:\Users\Doug\Downloads\HudsonAlpha_Hachathon_2021\app_mascot.png"
   inkscape:export-xdpi="96"
   inkscape:export-ydpi="96">
  <defs
     id="defs2">
    <marker
       style="overflow:visible"
       id="Arrow1Lstart"
       refX="0"
       refY="0"
       orient="auto"
       inkscape:stockid="Arrow1Lstart"
       inkscape:isstock="true">
      <path
         transform="matrix(0.8,0,0,0.8,10,0)"
         style="fill:#802b00;fill-opacity:1;fill-rule:evenodd;stroke:#000000;stroke-width:1pt;stroke-opacity:1"
         d="M 0,0 5,-5 -12.5,0 5,5 Z"
         id="path872" />
    </marker>
  </defs>
  <sodipodi:namedview
     id="base"
     pagecolor="#ffffff"
     bordercolor="#666666"
     borderopacity="1.0"
     inkscape:pageopacity="0.0"
     inkscape:pageshadow="2"
     inkscape:zoom="0.70910507"
     inkscape:cx="342.00325"
     inkscape:cy="487.49351"
     inkscape:document-units="mm"
     inkscape:current-layer="layer2"
     inkscape:document-rotation="0"
     showgrid="false"
     inkscape:snap-grids="true"
     inkscape:snap-others="true"
     inkscape:snap-global="false"
     inkscape:window-width="1920"
     inkscape:window-height="1058"
     inkscape:window-x="-8"
     inkscape:window-y="-8"
     inkscape:window-maximized="1"
     showguides="false" />
  <metadata
     id="metadata5">
    <rdf:RDF>
      <cc:Work
         rdf:about="">
        <dc:format>image/svg+xml</dc:format>
        <dc:type
           rdf:resource="http://purl.org/dc/dcmitype/StillImage" />
        <dc:title />
      </cc:Work>
    </rdf:RDF>
  </metadata>
  <g
     inkscape:groupmode="layer"
     id="layer2"
     inkscape:label="Layer 2"
     style="display:inline">
    <path
       style="fill:#ff2c00;fill-opacity:1;stroke:#000000;stroke-width:2;stroke-linecap:butt;stroke-linejoin:miter;stroke-miterlimit:4;stroke-dasharray:none;stroke-opacity:1"
       d="M 24.712943,147.76364 3.7623095,127.56722 25.281426,85.627442 l 5.491146,5.38253 -18.387881,35.061168 14.741645,15.16455 z"
       id="path1204-0"
       sodipodi:nodetypes="ccccccc" />
    <path
       style="fill:#40771d;fill-opacity:1;stroke:#000000;stroke-width:2;stroke-linecap:butt;stroke-linejoin:miter;stroke-miterlimit:4;stroke-dasharray:none;stroke-opacity:1"
       d="m 57.098367,32.300225 -10.607145,2.737329 1.026498,-5.132488 -6.158986,3.079491 -3.421658,-4.790321 1.710827,-3.42166 -2.737326,-4.448157 6.843318,-1.026496 -0.684331,-6.158986 6.501151,-1.026499 3.079493,-4.1059892 3.421659,10.2649762 10.94931,-14.0288012 1.71083,5.474652 8.21198,-3.421658 -1.71083,5.4746552 8.55415,2.395162 -6.84332,3.763825 5.13249,3.763825 -8.89631,4.105989 3.76382,4.448157 8.21198,-4.10599 1.36867,7.185483 -3.0795,4.105992 2.39516,4.448156 -6.84331,0.342165 -1.36867,6.843318 -6.15898,-5.474655 -4.44816,5.474655 -1.0265,-9.23848 -5.81682,-3.079493 -9.238479,12.660138 -4.105989,-3.421658 z"
       id="path1156" />
    <ellipse
       style="fill:#ffffff;fill-opacity:1;stroke:#000000;stroke-width:2;stroke-miterlimit:4;stroke-dasharray:none;stroke-opacity:1"
       id="path1228"
       cx="112.21211"
       cy="98.3619"
       rx="5.8769889"
       ry="9.6749744"
       transform="rotate(37.785007)" />
    <path
       style="fill:#ffffff;fill-opacity:1;stroke:none;stroke-width:0.264583px;stroke-linecap:butt;stroke-linejoin:miter;stroke-opacity:1"
       d="m 31.364934,143.69109 c -3.270232,1.64622 -5.366728,2.39024 -6.345697,8.13042 0.06342,2.10376 0.253316,3.72783 1.487273,5.45334 1.817328,2.10885 3.932772,3.70214 6.147395,5.05673 2.723086,1.4493 5.499589,2.79722 8.130426,2.67709 -0.334375,1.56762 -0.310847,2.83698 0,3.86691 0.777905,1.70778 1.786282,2.79707 3.866909,3.272 2.15557,0.42137 4.230465,0.33801 6.345698,-0.39661 1.460127,-0.44972 1.810939,-1.21543 2.181329,-2.08218 0.26308,-0.78273 0.20753,-1.29384 -0.1983,-2.28049 l 1.58643,-0.0992 c 1.11688,-0.5554 1.65529,-1.49645 1.98303,-2.57794 0.37154,-1.4394 -0.14389,-3.0562 -1.09067,-4.75927 1.03303,-0.38391 1.96955,-0.91259 2.47879,-2.08218 0.30746,-1.59411 -0.10943,-3.42966 -1.38812,-5.55249 -1.25089,-1.98303 -1.98822,-2.97455 -4.461821,-4.46182 -3.813857,-2.01456 -7.540121,-3.54948 -12.592245,-4.36267 -2.610991,-0.63445 -5.420285,-0.70833 -8.130427,0.19836 z"
       id="path871"
       sodipodi:nodetypes="cccccccccccccccccc" />
    <path
       style="fill:none;stroke:#000000;stroke-width:2;stroke-linecap:butt;stroke-linejoin:miter;stroke-miterlimit:4;stroke-dasharray:none;stroke-opacity:1"
       d="m 31.317323,143.92754 c 5.999578,-1.575 10.623307,0.54505 12.343249,0.86924 8.540142,3.02798 9.331955,3.22289 12.733875,7.44687 1.23791,2.40962 1.96386,4.26964 1.4067,5.90025 -0.98635,0.96853 -1.86183,1.64814 -2.87115,1.66323"
       id="path1234"
       sodipodi:nodetypes="ccccc" />
    <path
       style="fill:none;stroke:#000000;stroke-width:2;stroke-linecap:butt;stroke-linejoin:miter;stroke-miterlimit:4;stroke-dasharray:none;stroke-opacity:1"
       d="m 25.232623,151.75073 c -0.05491,4.30272 1.042898,5.33663 3.650819,7.82318 3.553251,3.09789 4.31253,3.2989 7.47549,4.52006 l 7.475489,1.56464"
       id="path1236"
       sodipodi:nodetypes="cccc" />
    <path
       style="fill:none;stroke:#000000;stroke-width:2;stroke-linecap:butt;stroke-linejoin:miter;stroke-miterlimit:4;stroke-dasharray:none;stroke-opacity:1"
       d="m 51.136061,155.74236 c 3.569916,2.68427 5.142206,5.72045 5.287016,8.62405 -0.98546,2.77967 -1.85831,3.12313 -3.989512,3.68315"
       id="path1238"
       sodipodi:nodetypes="ccc" />
    <path
       style="fill:#802b00;fill-opacity:1;stroke:#000000;stroke-width:2;stroke-linecap:butt;stroke-linejoin:miter;stroke-miterlimit:4;stroke-dasharray:none;stroke-opacity:1"
       d="m 50.939378,49.408522 -4.105989,-3.42166 -6.158987,3.42166 1.71083,7.18548 1.368663,9.58065 -4.448156,14.37097 -4.105992,19.16129 -5.132488,11.633638 -1.026499,13.34446 6.158987,17.1083 11.291475,16.76613 11.633645,14.71313 5.81682,0.68434 5.47465,-1.71083 0.34217,-1.71084 -5.13249,-7.52764 -8.55415,-15.0553 -7.185484,-15.73964 -7.527649,-13.68663 0.684331,-9.58065 5.132488,-13.344468 4.105992,-13.34446 0.684332,-13.00231 -2.052995,-15.397463 z"
       id="path47" />
    <path
       style="fill:#ffffff;fill-opacity:1;stroke:#000000;stroke-width:2;stroke-linecap:butt;stroke-linejoin:miter;stroke-miterlimit:4;stroke-dasharray:none;stroke-opacity:1"
       d="m 17.935527,122.58784 c 21.52025,2.10763 36.83375,1.83066 48.92972,-10.94931 -1.93191,14.17421 2.24366,18.42376 7.52765,20.87212 -41.496539,2.80208 -41.369491,-2.07805 -55.77304,-8.21198 z"
       id="path1158"
       sodipodi:nodetypes="ccccc" />
    <ellipse
       style="fill:#ffffff;fill-opacity:1;stroke:#000000;stroke-width:2;stroke-miterlimit:4;stroke-dasharray:none;stroke-opacity:1"
       id="path1160"
       cx="25.961279"
       cy="86.020271"
       rx="14.713133"
       ry="22.925112" />
    <path
       style="fill:none;stroke:#000000;stroke-width:2;stroke-linecap:butt;stroke-linejoin:miter;stroke-miterlimit:4;stroke-dasharray:none;stroke-opacity:1"
       d="m 25.232623,151.75073 c 0.359931,-4.12262 3.12592,-6.62611 6.0847,-7.82319"
       id="path1248"
       sodipodi:nodetypes="cc" />
    <ellipse
       style="fill:#000000;fill-opacity:1;stroke:none;stroke-width:2;stroke-miterlimit:4;stroke-dasharray:none;stroke-opacity:1"
       id="path1182"
       cx="31.264845"
       cy="95.087669"
       rx="4.2770734"
       ry="7.6987324" />
    <path
       style="fill:none;stroke:#000000;stroke-width:2;stroke-linecap:butt;stroke-linejoin:miter;stroke-miterlimit:4;stroke-dasharray:none;stroke-opacity:1"
       d="m 49.602163,162.52086 c 1.702838,1.44262 2.20144,2.38125 3.161074,4.10187 0.45152,2.06366 0.49921,3.49732 -1.09132,4.70398 -2.155988,1.07096 -4.837071,1.3117 -7.977955,0.41395 -2.485017,-0.77842 -3.445461,-2.57673 -3.04818,-6.05873"
       id="path869"
       sodipodi:nodetypes="ccccc" />
    <path
       style="fill:#ffffff;fill-opacity:1;stroke:none;stroke-width:0.264583px;stroke-linecap:butt;stroke-linejoin:miter;stroke-opacity:1"
       d="m 81.038017,144.62293 -6.60625,5.56315 c -9.930144,12.23789 -5.14707,4.7668 -6.25855,10.25707 1.37643,7.50938 2.806377,8.7668 4.86776,12.5171 1.245225,1.17961 2.292903,2.29336 3.989054,3.62328 5.168187,1.84499 9.229753,1.53336 13.569656,0.37523 1.646981,-0.45752 3.507376,-1.80333 4.52006,-3.47697 -0.572295,-2.24254 0.03031,-4.09485 2.317696,-5.81187 0.603523,-1.43312 0.636358,-2.70927 -0.395028,-4.64228 1.292251,-2.34805 1.182055,-4.17783 0.517238,-5.78434 -1.708585,-1.47245 -3.420751,-2.42793 -6.30674,-1.09473 -0.509665,-0.62659 -1.01356,-1.24164 -1.681687,-2.18516 -2.194098,-1.13933 -1.864139,-3.79311 -2.796209,-5.68966 z"
       id="path1230"
       sodipodi:nodetypes="cccccccccccccc" />
    <path
       style="fill:none;stroke:#000000;stroke-width:2;stroke-linecap:butt;stroke-linejoin:miter;stroke-miterlimit:4;stroke-dasharray:none;stroke-opacity:1"
       d="m 78.951827,146.01372 -4.52006,4.52006 c -4.75,4.50626 -5.76399,6.08218 -6.25855,9.90937 0.19678,4.60786 2.39625,9.06985 4.62334,13.09029 1.7801,1.64786 3.08912,2.72021 4.24294,3.1155 6.41456,1.82101 6.45501,2.26129 13.90789,0.65752 3.34239,-0.97119 3.50609,-2.67722 3.65082,-4.52006 -0.2017,-1.72731 -0.30422,-2.37777 -1.35809,-4.10179 -1.40571,-1.25883 -2.06015,-1.15533 -3.52345,-1.24965 -3.10402,0.30065 -5.13077,1.30377 -7.63556,2.39602"
       id="path1232"
       sodipodi:nodetypes="cccccccccc" />
    <path
       style="fill:none;stroke:#000000;stroke-width:2;stroke-linecap:butt;stroke-linejoin:miter;stroke-miterlimit:4;stroke-dasharray:none;stroke-opacity:1"
       d="m 87.535817,149.94511 3.5441,6.96599 c 0.42224,2.47984 0.54625,3.39595 -0.61105,5.62168 -1.35331,1.23855 -0.4502,1.96686 -5.01062,3.78852"
       id="path1242"
       sodipodi:nodetypes="cccc" />
    <path
       style="fill:none;stroke:#000000;stroke-width:2;stroke-linecap:butt;stroke-linejoin:miter;stroke-miterlimit:4;stroke-dasharray:none;stroke-opacity:1"
       d="m 93.646347,170.23203 c 2.47176,-0.79105 2.95066,-1.05717 3.91072,-2.4442 0.92424,-1.66584 0.77358,-2.95075 -0.36663,-4.644 -2.51967,-1.36368 -3.84536,-1.56067 -6.84377,-0.36663"
       id="path1244"
       sodipodi:nodetypes="cccc" />
    <path
       style="fill:none;stroke:#000000;stroke-width:2;stroke-linecap:butt;stroke-linejoin:miter;stroke-miterlimit:4;stroke-dasharray:none;stroke-opacity:1"
       d="m 90.713297,156.9111 c 1.17955,-0.65239 0.1264,-2.04902 3.91072,-1.83315 2.0759,1.1107 2.92353,1.83142 3.54411,4.03294 -0.0408,1.71774 -0.2606,2.65059 -1.71095,4.03294"
       id="path1246"
       sodipodi:nodetypes="cccc" />
    <ellipse
       style="fill:#ffffff;fill-opacity:1;stroke:#000000;stroke-width:2;stroke-miterlimit:4;stroke-dasharray:none;stroke-opacity:1"
       id="path1226"
       cx="138.43134"
       cy="95.377815"
       rx="12.14689"
       ry="6.6722345"
       transform="rotate(25.066427)" />
    <path
       style="fill:#ff2c00;fill-opacity:1;stroke:#000000;stroke-width:2;stroke-linecap:butt;stroke-linejoin:miter;stroke-miterlimit:4;stroke-dasharray:none;stroke-opacity:1"
       d="M 61.888687,83.282942 108.42325,112.02488 88.919797,144.8728 c -2.99843,0.98886 -6.14637,-0.14278 -6.86779,-3.61715 l 16.44843,-28.20427 -39.00691,-22.925118 z"
       id="path1204"
       sodipodi:nodetypes="ccccccc" />
    <ellipse
       style="fill:#ffffff;fill-opacity:1;stroke:#000000;stroke-width:2;stroke-miterlimit:4;stroke-dasharray:none;stroke-opacity:1"
       id="path1160-1"
       cx="51.623714"
       cy="88.07328"
       rx="14.713133"
       ry="22.925112" />
    <ellipse
       style="fill:#000000;fill-opacity:1;stroke:none;stroke-width:2;stroke-miterlimit:4;stroke-dasharray:none;stroke-opacity:1"
       id="path1182-4"
       cx="46.149059"
       cy="96.627419"
       rx="4.2770734"
       ry="7.6987324" />
  </g>
</svg>
